<mxfile host="app.diagrams.net" modified="2023-08-24T19:45:18.988Z" agent="Mozilla/5.0 (Windows NT 10.0; Win64; x64) AppleWebKit/537.36 (KHTML, like Gecko) Chrome/115.0.0.0 Safari/537.36 Edg/115.0.1901.203" version="21.6.9" etag="1KXOa74Cxt9i8S1xMd2W" type="github">
  <diagram name="Page-1" id="0Bkx0qTFnS87-4MGXP0e">
    <mxGraphModel>
      <root>
        <mxCell id="0" />
        <mxCell id="1" parent="0" />
      </root>
    </mxGraphModel>
  </diagram>
</mxfile>
